<?xml version="1.0" encoding="UTF-8"?>
<svg version="1.1" viewBox="0 0 512 512" xml:space="preserve" xmlns="http://www.w3.org/2000/svg"><g transform="matrix(1.1 0 0 1.1 18.681 -13.514)"><path d="m350.23 357.94c-7.343 0-14.67-0.981-21.778-2.915l7.897-29.022c4.535 1.234 9.205 1.86 13.881 1.86 29.066 0 52.714-23.647 52.714-52.714s-23.648-52.714-52.714-52.714c-4.676 0-9.345 0.626-13.879 1.86l-7.901-29.021c7.108-1.935 14.436-2.916 21.78-2.916 45.652 0 82.792 37.14 82.792 82.792s-37.14 82.79-82.792 82.79z" fill="#612628"/><path d="m383.1 185.98v130.58c0 74.991-64.095 136-142.87 136h-47.442c-78.773 0-142.86-61.008-142.86-136v-130.58z" fill="#ebdbe1" stroke-width=".9757"/><path d="m383.1 185.98v130.58c0 74.991-64.095 136-142.87 136h-21.435v-266.59z" fill="#ba8785" stroke-width=".9757"/><path d="m433.03 435.92v19.955c0 12.234-21.144 22.184-47.121 22.184h-338.78c-25.987 0-47.121-9.9495-47.121-22.184v-19.955z" fill="#8f213f" stroke-width=".68613"/></g><g transform="matrix(1.1 0 0 1.1 -10.549 .21813)" fill="#ebdbe1"><path d="m190.16 134.23-25.185-16.443-0.063 0.097c0.567-0.899 13.73-22.267 0.157-42.549-24.787-37.04-1.069-73.783-0.047-75.329l25.092 16.585 0.066-0.1c-0.563 0.884-13.648 21.891-0.114 42.116 24.754 36.991 1.113 74.063 0.094 75.623z"/><path d="m256.28 134.23-25.185-16.442c1.113-1.815 13.344-22.648 0.1-42.45-24.794-37.045-1.073-73.78-0.05-75.334l12.542 8.291 12.542 8.301c-1.143 1.855-13.234 22.297-0.04 42.008 24.755 36.996 1.114 74.062 0.091 75.626z"/></g><g transform="matrix(1.1 0 0 1.1 18.681 -13.514)"><path d="m299.9 146.71-25.186-16.443-0.063 0.098c0.567-0.9 13.73-22.268 0.158-42.55-24.789-37.04-1.07-73.783-0.048-75.329l25.092 16.585 0.066-0.1c-0.564 0.884-13.648 21.891-0.114 42.116 24.754 36.991 1.114 74.063 0.095 75.623z" fill="#ba8785"/><path d="m433.03 435.92v19.918c0 12.211-21.144 22.142-47.121 22.142h-167.11v-42.06z" fill="#612628" stroke-width=".68548"/><path d="m229.71 146.71-12.592-8.221v-117.71l12.542 8.301c-1.143 1.855-13.234 22.297-0.04 42.008 24.754 36.996 1.113 74.062 0.09 75.626z" fill="#ba8785"/></g></svg>
