<?xml version="1.0" encoding="UTF-8"?>
<svg version="1.1" viewBox="0 0 433.03 498.57" xml:space="preserve" xmlns="http://www.w3.org/2000/svg"><path d="m243.63 17.87h-0.01c0.01-0.01 0.01-0.02 0.02-0.03z" fill="#dccaba"/><path d="m243.63 17.87h-0.01c0.01-0.01 0.01-0.02 0.02-0.03z" fill="#ffa720"/><g><path d="m350.23 357.94c-7.343 0-14.67-0.981-21.778-2.915l7.897-29.022c4.535 1.234 9.205 1.86 13.881 1.86 29.066 0 52.714-23.647 52.714-52.714s-23.648-52.714-52.714-52.714c-4.676 0-9.345 0.626-13.879 1.86l-7.901-29.021c7.108-1.935 14.436-2.916 21.78-2.916 45.652 0 82.792 37.14 82.792 82.792s-37.14 82.79-82.792 82.79z" fill="#612628"/><path d="m383.1 172.54v137.17c0 78.773-64.095 142.86-142.87 142.86h-47.442c-78.773 0-142.86-64.085-142.86-142.86v-137.17z" fill="#ebdbe1"/><path d="m383.1 172.54v137.17c0 78.773-64.095 142.86-142.87 142.86h-21.435v-280.03z" fill="#ba8785"/><path d="m433.03 435.92v29.672c0 18.191-21.144 32.985-47.121 32.985h-338.78c-25.987 0-47.121-14.794-47.121-32.985v-29.672z" fill="#8f213f" stroke-width=".83666"/></g><g transform="translate(-24.893)" fill="#ebdbe1">
	<path d="m190.16 134.23-25.185-16.443-0.063 0.097c0.567-0.899 13.73-22.267 0.157-42.549-24.787-37.04-1.069-73.783-0.047-75.329l25.092 16.585 0.066-0.1c-0.563 0.884-13.648 21.891-0.114 42.116 24.754 36.991 1.113 74.063 0.094 75.623z"/>
	<path d="m256.28 134.23-25.185-16.442c1.113-1.815 13.344-22.648 0.1-42.45-24.794-37.045-1.073-73.78-0.05-75.334l12.542 8.291 12.542 8.301c-1.143 1.855-13.234 22.297-0.04 42.008 24.755 36.996 1.114 74.062 0.091 75.626z"/>
</g><g><path d="m297.5 134.23-25.186-16.443-0.063 0.098c0.567-0.9 13.73-22.268 0.158-42.55-24.789-37.04-1.07-73.783-0.048-75.329l25.092 16.585 0.066-0.1c-0.564 0.884-13.648 21.891-0.114 42.116 24.754 36.991 1.114 74.063 0.095 75.623z" fill="#ba8785"/><path d="m433.03 435.92v29.672c0 18.191-21.144 32.985-47.121 32.985h-167.11v-62.658z" fill="#612628" stroke-width=".83666"/><path d="m231.39 134.23-12.592-8.221v-117.71l12.542 8.301c-1.143 1.855-13.234 22.297-0.04 42.008 24.754 36.996 1.113 74.062 0.09 75.626z" fill="#ba8785"/></g></svg>
