<?xml version="1.0" encoding="UTF-8"?>
<svg enable-background="new 0 0 512 512" version="1.1" viewBox="0 0 512 512" xml:space="preserve" xmlns="http://www.w3.org/2000/svg"><g><path d="m330.7 211.48c-12.055 12.055-31.599 12.055-43.654 0s-12.055-31.599 0-43.654 31.6-12.055 43.654 0c6.027 6.027 9.041 13.927 9.041 21.827v-86.05c-42.616-20.019-94.985-12.428-130.2 22.785-34.078 34.078-42.283 84.222-24.632 126.05l-35.918 35.918-4.611 33.744-33.744 4.611-21.035 21.036-4.611 33.744-33.744 4.611-29.154 29.154 33.988 33.988h54.382l135.63-135.63c29.936 12.634 64.132 12.015 93.65-1.85v-122.11c-1e-3 7.9-3.015 15.8-9.042 21.828z" fill="#ebdbe1"/><path d="m330.7 211.48c-12.055 12.055-31.599 12.055-43.654 0l-234.36 234.36 3.399 3.399h54.382l135.63-135.63c29.936 12.634 64.132 12.015 93.65-1.85v-122.11c0 7.9-3.014 15.8-9.041 21.828z" fill="#ba8785"/><path d="m374.94 60.224c-63.497 0-114.97 51.474-114.97 114.97 0 48.193 29.656 89.453 71.711 106.55v50.796l20.6 27.121-20.6 27.121v29.748l20.6 27.121-20.6 27.121v41.231h48.067l38.454-38.454v-191.8c42.055-17.093 71.711-58.353 71.711-106.55-1e-3 -63.496-51.475-114.97-114.97-114.97zm0 120.34c-17.048 0-30.868-13.82-30.868-30.868s13.82-30.868 30.868-30.868 30.868 13.82 30.868 30.868-13.82 30.868-30.868 30.868z" fill="#612628"/><path d="m374.94 60.224v58.601c17.048 0 30.868 13.82 30.868 30.868s-13.82 30.868-30.868 30.868v331.44h4.807l38.454-38.454v-191.8c42.055-17.093 71.711-58.353 71.711-106.55-1e-3 -63.496-51.475-114.97-114.97-114.97z" fill="#8f213f"/><path d="m314.71 0c-41.479 0-75.225 33.746-75.225 75.224v29.555c9.576-4.78 19.682-8.123 30-10.063v-19.492c0-24.936 20.288-45.224 45.225-45.224s45.225 20.288 45.225 45.224v47.491c4.441-2.475 9.554-3.89 15-3.89s10.559 1.415 15 3.891v-47.492c0-41.478-33.747-75.224-75.225-75.224z" fill="#ebdbe1"/></g></svg>
