<?xml version="1.0" encoding="UTF-8"?>
<svg width="512pt" height="512pt" version="1.1" viewBox="0 0 512 512" xmlns="http://www.w3.org/2000/svg">
 <g transform="matrix(1.1 0 0 1.1 98.953 -23.193)">
  <path d="m263.05 209.64s51.393-37.84 65.121-65.361c7.4213-14.878 7.0508-49.377 7.0508-49.377h-72.172l-36.48 55.832z" fill="#8f213f"/>
  <path d="m-28.079 285.15-25.119-0.27118-0.30156-113.83c-0.09178-34.644 11.441-63.514 29.305-81.933 23.881-24.622 98.784-16.833 98.784-16.833l-0.5889 20.218s-62.684-3.9773-82.297 15.225c-14.22 13.922-22.405 38.43-21.905 64.95z" fill="#8f213f"/>
  <path d="m263.05 486.76v-123.8c0-28.782-11.25-55.067-29.801-75.132l-110.45-18.981 20.016 217.91z" fill="#612628" stroke-width=".9738"/>
  <path d="m22.57 362.97v123.8h120.24v-217.91l-90.434 18.981c-18.555 20.066-29.805 46.351-29.805 75.132z" fill="#ba8785" stroke-width=".9738"/>
  <path d="m122.79 74.882 20.016 213.98h90.438c18.551-21.156 29.801-48.875 29.801-79.227v-114.74z" fill="#ba8785"/>
  <path d="m22.57 94.902v114.74c0 30.348 11.25 58.07 29.805 79.227h90.434v-213.98z" fill="#ebdbe1"/>
  <path d="m135.13 22.776c3.6448-2.374 11.819-3.103 15.463 0 13.051 11.111 5.802 71.668 5.802 71.668h-27.482s-7.7223-62.589 6.2164-71.668z" fill="#8f213f" stroke-width=".87413"/>
  <path d="m263.05 61.221h-120.24l-20.016 16.839 20.016 16.842h120.24z" fill="#612628" stroke-width=".73786"/>
  <path d="m22.57 61.221h120.24v33.676h-120.24z" fill="#ba8785" stroke-width=".73784"/>
 </g>
</svg>
